# xmcd
#
# Track frame offsets: 
#        150
#        12123
#        24890
#        34503
#        43788
#        55575
#        64485
#        74435
#        89765
#        98683
#        116225
#        124225
#        135383
#        151253
#        160335
#        169698
#        180378
#        193303
#        213500
#        228438
#        236453
#        256955
#        267268
#        277688
#        290343
#
# Disc length: 3982 seconds
#
# Revision: 2
# Processed by: cddbd v1.5.2PL0 Copyright (c) Steve Scherf et al.
# Submitted via: ExactAudioCopy v1.3
#
DISCID=5c0f8c19
DTITLE=Various Artist - 50 Years of Bluegrass Hits Vol. 3
DYEAR=1985
DGENRE=Bluegrass
TTITLE0=Rocky Top
TTITLE1=Blue Eyes Crying in the Rain
TTITLE2=Feudin' Banjos
TTITLE3=Jimmie Brown the Newboy
TTITLE4=Low and Lonely
TTITLE5=Peacock Rag
TTITLE6=I'm Using My Bible For A Roadmap
TTITLE7=Nine Pound Hammer
TTITLE8=Border Ride
TTITLE9=The White Dove
TTITLE10=She Was Always Chewing Gum
TTITLE11=Little Footprints in the Snow
TTITLE12=Will the Circle Be Unbroken
TTITLE13=Midnight Flyer
TTITLE14=Thinking Tonight of My Blue Eyes
TTITLE15=Diesel On My Tail
TTITLE16=Pins and Needles (In My Heart)
TTITLE17=Bluegrass Concerto
TTITLE18=Father's Table Grace
TTITLE19=Under the Double Eagle
TTITLE20=In the Pines
TTITLE21=I'll Go Stepping Too
TTITLE22=Cripple Creek
TTITLE23=Lonesome Road Blues
TTITLE24=Somebodey Touched Me
EXTD=
EXTT0=The Osbourne Brothers
EXTT1=
EXTT2=
EXTT3=
EXTT4=
EXTT5=
EXTT6=
EXTT7=
EXTT8=
EXTT9=
EXTT10=
EXTT11=
EXTT12=
EXTT13=
EXTT14=
EXTT15=
EXTT16=
EXTT17=
EXTT18=
EXTT19=
EXTT20=
EXTT21=
EXTT22=
EXTT23=
EXTT24=
PLAYORDER=
